<svg width="217" height="235" viewBox="0 0 217 235" fill="none" xmlns="http://www.w3.org/2000/svg">
<g clip-path="url(#clip0_8459_307)">
<path d="M56.8272 101.245C81.5983 101.245 101.679 81.2293 101.679 56.5382C101.679 31.8471 81.5983 11.831 56.8272 11.831C32.0561 11.831 11.9751 31.8471 11.9751 56.5382C11.9751 81.2293 32.0561 101.245 56.8272 101.245Z" fill="#FF6884"/>
<path d="M123.835 17.2754L37.4462 64.7077C27.4667 77.4613 217.09 78.2497 215.525 64.7546L131.753 17.3223C129.369 15.9723 126.243 15.9537 123.835 17.2754Z" fill="#5A8FEC"/>
<path opacity="0.2" d="M123.835 17.2754L37.4462 64.7077C27.4667 77.4613 217.09 78.2497 215.525 64.7546L131.753 17.3223C129.369 15.9723 126.243 15.9537 123.835 17.2754Z" fill="black"/>
<path opacity="0.8" d="M215.166 235L193.192 234.533H42.5065L0.998291 233.599C138.61 201.182 96.2985 203.973 215.166 235Z" fill="#F2F2F2"/>
<path d="M194.936 233.599L193.191 234.533H42.5063C145.511 213.339 83.7563 215.205 194.936 233.599Z" fill="#CDCDCD"/>
<path d="M122.126 13.3158H128.612L126.425 1.02828C126.29 0.269131 125.772 0 125.369 0C124.967 0 124.449 0.269131 124.314 1.02828L122.126 13.3158Z" fill="#3F3D56"/>
<path d="M128.663 53.8579H121.511V227.699H128.663V53.8579Z" fill="#3F3D56"/>
<path d="M125.107 80.9956C122.057 80.9956 119.189 79.8181 117.021 77.6726L98.9739 59.8132L100.448 58.3328L118.495 76.1922C120.289 77.968 122.658 78.9373 125.199 78.9092C127.727 78.8854 130.089 77.876 131.85 76.0669L149.095 58.3467L150.597 59.7992L133.352 77.5195C131.199 79.7319 128.311 80.9661 125.219 80.9953C125.181 80.9956 125.144 80.9956 125.107 80.9956Z" fill="#3F3D56"/>
<path d="M127.607 67.3611C118.728 67.3611 109.778 67.3308 101.091 67.2695C82.6855 67.139 66.9718 66.8814 55.6484 66.524C36.3478 65.915 36.1424 65.2229 36.0544 64.9277C36.0343 64.8594 36.0273 64.7268 36.209 64.6076L122.361 8.13521C124.433 6.77377 127.099 6.79228 129.152 8.18375L216.252 64.654C216.434 64.7769 216.425 64.9098 216.404 64.9781C216.295 65.3252 215.965 66.3814 177.722 67.0019C163.171 67.2379 145.536 67.3611 127.607 67.3611Z" fill="#5A8FEC"/>
<path d="M144.194 151.154L133.275 151.165C132.053 153.874 133.723 157.042 135.86 159.112C137.996 161.182 140.674 162.771 142.251 165.29C145.751 170.881 142.453 178.234 143.609 184.722C145.166 193.46 154.356 198.959 157.154 207.383C158.737 212.148 158.018 217.618 155.255 221.816C154.745 222.591 154.157 223.356 153.978 224.265C153.736 225.502 154.389 226.86 155.508 227.447C156.627 228.033 158.12 227.799 159.004 226.899C158.14 227.877 158.424 229.529 159.393 230.403C160.363 231.278 161.807 231.464 163.087 231.195C167.233 230.322 169.32 225.548 169.487 221.328C169.655 217.108 168.593 212.831 169.422 208.689C169.95 214.634 176.698 218.409 177.227 224.353C177.325 225.455 171.217 228.768 171.786 229.718C173.222 232.119 176.647 232.128 179.437 231.84C184.24 231.345 189.574 230.573 192.587 226.812C194.616 224.278 195.142 220.867 195.209 217.625C195.383 209.161 192.854 200.662 188.077 193.662C181.719 184.345 171.612 177.743 166.621 167.633C164.925 164.197 163.887 160.471 162.237 157.013C160.586 153.555 158.158 150.246 154.646 148.694C151.134 147.143 146.405 147.908 144.379 151.161" fill="#3F3D56"/>
<path d="M178.051 225.53C177.834 225.53 177.621 225.484 177.42 225.39C177.264 225.318 177.197 225.133 177.27 224.978C177.342 224.822 177.527 224.754 177.684 224.827C178.028 224.987 178.359 224.882 178.576 224.766C179.022 224.528 179.371 224.04 179.445 223.552C179.588 222.608 179.114 221.645 178.696 220.794C177.476 218.315 176.269 215.66 176.088 212.854C175.884 209.691 177.194 206.744 179.426 205.347C181.085 204.309 183.278 204.037 185.602 204.581C187.592 205.048 189.427 206.027 191.286 207.074C191.436 207.158 191.489 207.348 191.404 207.497C191.32 207.647 191.13 207.7 190.98 207.615C189.091 206.552 187.372 205.635 185.459 205.186C183.299 204.68 181.274 204.924 179.757 205.873C177.717 207.15 176.52 209.875 176.71 212.814C176.884 215.506 178.063 218.097 179.255 220.521C179.691 221.407 180.234 222.509 180.061 223.645C179.958 224.327 179.49 224.982 178.871 225.314C178.601 225.457 178.323 225.53 178.051 225.53Z" fill="#2F2E41"/>
<path d="M159.886 156.561C161.488 159.73 160.643 163.94 157.939 166.249C157.359 166.746 156.705 167.161 156.186 167.72C155.667 168.28 155.286 169.038 155.417 169.789C153.646 168.038 151.841 166.239 150.769 163.993C149.698 161.748 149.489 158.929 150.883 156.867C151.548 155.883 152.518 155.145 153.272 154.228C154.027 153.311 154.572 152.062 154.163 150.948" fill="#2F2E41"/>
<path d="M191.733 217.431C190.886 220.012 192.28 222.982 194.568 224.457C196.856 225.932 199.812 226.085 202.453 225.418C207.56 224.127 211.755 219.769 212.836 214.629C213.285 212.491 213.254 210.2 214.271 208.266C214.911 207.05 215.967 205.952 215.997 204.58C216.022 203.464 215.296 202.405 214.305 201.887C213.314 201.368 212.107 201.35 211.041 201.688C208.498 202.493 206.938 205.059 206.129 207.593C205.32 210.127 205.018 212.836 203.843 215.223C202.667 217.61 200.237 219.694 197.594 219.33C195.309 219.015 193.375 216.961 191.085 217.241" fill="#3F3D56"/>
<path d="M64.0352 185.221C60.9441 185.694 58.6829 187.666 58.9848 189.627C59.2866 191.588 62.0369 192.794 65.129 192.321C66.3668 192.149 67.5453 191.684 68.5658 190.965L90.9269 187.607L91.7696 179.907L67.7229 185.489C66.5327 185.107 65.2682 185.016 64.0352 185.221Z" fill="#FFB6B6"/>
<path d="M120.365 169.167L115.296 179.888L89.8152 188.438L91.0568 179.725L114.571 168.649L120.365 169.167Z" fill="#E6E6E6"/>
<path d="M73.3686 209.874L68.818 221.348L62.929 217.345L66.4088 205.339L73.3686 209.874Z" fill="#FFB6B6"/>
<path d="M54.3631 205.605L42.3174 217.078L47.1357 222.148L59.449 212.543L54.3631 205.605Z" fill="#FFB6B6"/>
<path d="M122.622 168.251L122.488 167.317L119.41 161.314L109.238 163.982L111.112 172.253L122.622 168.251Z" fill="#FFB6B6"/>
<path d="M118.339 208.274L118.652 212.281C118.652 212.281 119.945 229.085 109.506 230.419C99.066 231.754 94.5154 233.088 88.3587 222.682L78.7221 205.605L73.0934 212.281L65.6057 206.406C65.6057 206.406 70.9594 185.594 75.2423 184.794C75.7776 184.694 76.313 184.644 76.84 184.633C80.3857 184.559 83.7281 186.288 85.8495 189.121L97.9953 205.339L102.412 203.337L118.339 208.274Z" fill="#2F2E41"/>
<path d="M60.5198 220.814L63.2246 216.836L69.4323 219.773C69.4323 219.773 71.4948 226.951 69.0856 227.751C66.6765 228.552 59.9844 227.484 59.9844 227.484C59.9844 227.484 47.6711 230.153 47.4034 227.751C47.1357 225.35 53.0247 224.816 53.0247 224.816L60.5198 220.814Z" fill="#FFB6B6"/>
<path d="M86.7527 217.612L68.1488 205.928L58.646 214.41L52.2217 206.939C52.2217 206.939 63.9997 189.596 67.4796 188.796C70.9594 187.995 76.5807 187.462 76.5807 187.462L93.7124 203.204L86.7527 217.612Z" fill="#2F2E41"/>
<path d="M43.6141 216.054L47.5482 221.648L47.3942 223.374C47.3942 223.374 45.7969 230.308 42.0494 227.962C38.3018 225.617 38.0342 225.083 38.0342 225.083C38.0342 225.083 27.3269 227.484 26.2561 223.215C25.1854 218.946 28.1299 219.747 28.1299 219.747L30.8036 221.348L41.2255 217.875L43.6141 216.054Z" fill="#FFB6B6"/>
<path d="M112.45 166.917C117.181 166.917 121.016 163.094 121.016 158.379C121.016 153.663 117.181 149.841 112.45 149.841C107.719 149.841 103.884 153.663 103.884 158.379C103.884 163.094 107.719 166.917 112.45 166.917Z" fill="#FFB6B6"/>
<path d="M110.443 170.519L122.756 166.783C122.756 166.783 127.574 177.99 126.771 183.059C125.968 188.129 118.652 212.281 118.652 212.281L102.412 203.337C102.412 203.337 102.144 198.001 101.341 195.6C100.538 193.198 97.9954 185.861 103.617 179.724C109.238 173.587 110.443 170.519 110.443 170.519Z" fill="#E6E6E6"/>
<path d="M83.3415 226.546C81.3375 228.939 80.9519 231.909 82.48 233.18C84.0081 234.451 86.8708 233.541 88.8751 231.147C89.6889 230.202 90.2638 229.076 90.5515 227.863L109.521 206.662L103.643 203.494L86.2836 224.313C85.1381 224.813 84.1293 225.578 83.3415 226.546Z" fill="#FFB6B6"/>
<path d="M119.887 175.902L122.797 187.393L108.553 210.121L109.838 209.829L102.053 204.128L103.963 202.603L115.08 179.167L119.887 175.902Z" fill="#E6E6E6"/>
<path d="M104.553 156.911C106.75 156.906 106.875 156.921 107.23 156.911C109.955 156.84 110.667 155.771 112.049 155.844C114.513 155.974 111.26 168.293 109.907 173.988C108.58 179.573 113.065 184.578 113.387 184.927C117.939 189.862 125.934 190.764 127.306 188.662C128.417 186.962 124.481 184.375 125.433 180.658C126.363 177.024 130.657 177.411 131.857 173.988C133.114 170.402 128.89 168.594 126.236 159.846C124.711 154.822 124.981 153.886 123.559 150.774C119.757 142.457 101.123 145.998 103.215 153.709C103.62 155.201 102.543 156.916 104.553 156.911Z" fill="#2F2E41"/>
</g>
<defs>
<clipPath id="clip0_8459_307">
<rect width="215.417" height="235" fill="white" transform="translate(0.998291)"/>
</clipPath>
</defs>
</svg>
